<svg width="83" height="35" viewBox="0 0 83 35" fill="none" xmlns="http://www.w3.org/2000/svg">
<g clip-path="url(#clip0_4_4084)">
<path d="M0.444336 3.57075V8.27441H4.52615V34.6666H12.3986V0.222168H5.75997C5.75997 0.222168 4.67173 4.24829 0.444336 3.57075Z" fill="#12BE12 "/>
<path d="M70.7119 3.57075V8.27441H74.7937V34.6666H82.6662V0.222168H76.0275C76.0275 0.222168 74.9411 4.24829 70.7119 3.57075Z" fill="#12BE12 "/>
<path d="M49.47 15.1317C48.2689 6.82441 41.27 0.222168 32.8152 0.222168C23.516 0.222168 15.9766 7.93378 15.9766 17.4453C15.9766 26.9569 23.516 34.6685 32.8152 34.6685C38.3274 34.6685 43.2208 31.9602 46.2908 27.7721L41.6285 23.5245C39.7177 26.4171 36.4821 28.3175 32.8134 28.3175C26.9427 28.3175 22.1821 23.4501 22.1821 17.4435C22.1821 11.4369 26.9409 6.5694 32.8134 6.5694C37.9088 6.5694 42.1653 10.2363 43.2026 15.1298H49.47V15.1317Z" fill="#12BE12 "/>
<path d="M35.9727 19.6994C37.0518 28.1463 44.1163 34.6666 52.6675 34.6666C61.9667 34.6666 69.5061 26.955 69.5061 17.4435C69.5061 7.93192 61.9685 0.222168 52.6675 0.222168C47.1644 0.222168 42.2764 2.923 39.2046 7.09989L43.7523 11.5225C45.6485 8.54244 48.9333 6.57312 52.6675 6.57312C58.5382 6.57312 63.2988 11.4406 63.2988 17.4472C63.2988 23.4538 58.54 28.3212 52.6675 28.3212C47.5302 28.3212 43.2446 24.6581 42.2528 19.7031H35.9727V19.6994Z" fill="#12BE12 "/>
</g>
<defs>
<clipPath id="clip0_4_4084">
<rect width="82.2222" height="34.4444" fill="white" transform="translate(0.444336 0.222168)"/>
</clipPath>
</defs>
</svg>
